<svg width="24" height="24" viewBox="0 0 24 24" fill="none" xmlns="http://www.w3.org/2000/svg">
<path fill-rule="evenodd" clip-rule="evenodd" d="M20.862 20.5179C20.8359 20.6125 20.7796 20.6955 20.7019 20.7533C20.6243 20.8112 20.5299 20.8406 20.4339 20.8369L20.2348 20.7972L15.4896 18.7669C15.4379 18.6874 15.3732 18.6874 15.2905 18.7669L12.0627 20.6015C11.9247 20.6545 11.7726 20.6545 11.6346 20.6015L6.45739 17.7355L4.78475 20.7218C4.74617 20.8047 4.68554 20.8747 4.60981 20.924C4.53408 20.9732 4.44633 20.9995 4.35663 21C4.25863 20.9921 4.16462 20.9569 4.08483 20.8981C3.98327 20.8345 3.90733 20.7358 3.87077 20.6198C3.83229 20.5114 3.82537 20.3939 3.85086 20.2815L5.5235 17.335L3.23357 16.061C3.17568 16.0315 3.1243 15.9901 3.08261 15.9395C3.04091 15.8889 3.00978 15.8301 2.99112 15.7667C2.97247 15.7033 2.96669 15.6366 2.97414 15.5709C2.98159 15.5051 3.00212 15.4416 3.03445 15.3842C3.10269 15.265 3.21321 15.1773 3.34301 15.1393C3.47281 15.1014 3.6119 15.1161 3.73138 15.1804L11.8208 19.6394L14.8156 17.9271C14.974 17.8351 15.1504 17.7802 15.3321 17.7664C15.5137 17.7527 15.6961 17.7804 15.866 17.8476L20.5723 19.8779C20.6327 19.899 20.6882 19.9327 20.7353 19.977C20.7823 20.0213 20.8197 20.0751 20.8453 20.135C20.8709 20.195 20.884 20.2597 20.8838 20.3251C20.8836 20.3905 20.87 20.4551 20.8441 20.5149L20.862 20.5179ZM21.0611 15.7603C21.1033 15.9023 21.1232 16.0502 21.1199 16.1986C21.087 16.6466 20.975 17.0848 20.7893 17.4919C20.7029 17.7064 20.5776 17.9021 20.42 18.0688C20.25 18.2811 20.0055 18.4169 19.7389 18.4469C19.6011 18.4176 19.4694 18.3638 19.3497 18.2879L15.188 16.6959L12.1543 18.1687C12.0106 18.2467 11.8505 18.2875 11.6879 18.2875C11.5252 18.2875 11.3651 18.2467 11.2214 18.1687L6.44245 15.5809C6.39832 15.5753 6.3565 15.5576 6.32143 15.5296C6.28637 15.5016 6.25938 15.4644 6.24333 15.4219C6.1289 15.328 6.04151 15.204 5.99044 15.0632C5.92052 14.8589 5.90036 14.6403 5.9317 14.4262C5.93531 14.2216 5.97476 14.0193 6.04819 13.8289L5.9317 14.0328C5.77595 14.1988 5.58861 14.3304 5.38124 14.4195C5.17387 14.5085 4.95087 14.5531 4.726 14.5505H4.68319C4.22655 14.5289 3.79523 14.3295 3.4775 13.993C3.32406 13.8117 3.20519 13.6026 3.12704 13.3764C3.05184 13.1657 3.01244 12.9434 3.01055 12.719C3.05283 12.263 3.24481 11.8352 3.55516 11.5052C3.88479 11.1655 4.33196 10.9725 4.79968 10.9681C5.25223 11.0147 5.6732 11.2268 5.98546 11.5653C6.14498 11.734 6.27009 11.9336 6.3535 12.1523C6.43692 12.371 6.47697 12.6046 6.47133 12.8393L6.4325 13.1981C6.62691 12.9493 6.88163 12.7571 7.17125 12.6406C7.36802 12.5093 7.59746 12.4385 7.83234 12.4367C8.03322 12.4296 8.23298 12.4704 8.41577 12.556L12.2658 14.6657L14.7549 13.7107C14.8815 13.6453 15.0213 13.6112 15.1631 13.6112C15.3049 13.6112 15.4447 13.6453 15.5713 13.7107L20.7485 15.582C20.8615 15.6206 20.966 15.6815 21.0562 15.7613L21.0611 15.7603ZM5.55834 12.7996C5.54795 12.5949 5.47282 12.3992 5.34428 12.2421C5.27744 12.1622 5.19356 12.0992 5.09912 12.0579C5.00469 12.0165 4.90224 11.9979 4.79968 12.0036C4.61209 12.0048 4.42673 12.0453 4.25508 12.1228C4.17005 12.1918 4.10141 12.2797 4.05433 12.3798C4.00726 12.4799 3.98296 12.5896 3.98327 12.7007C3.97918 12.9113 4.04994 13.1163 4.1824 13.2776C4.25491 13.3622 4.34484 13.4293 4.44572 13.474C4.54661 13.5188 4.65594 13.5401 4.76583 13.5364C4.95981 13.5278 5.14795 13.4659 5.31043 13.3571C5.39279 13.2917 5.45839 13.2067 5.50158 13.1096C5.54476 13.0125 5.56425 12.9061 5.55834 12.7996ZM20.1621 16.383L15.2617 14.6708H15.1452L12.5008 15.7063C12.4834 15.7303 12.4584 15.7473 12.4301 15.7545C12.4018 15.7618 12.3719 15.7588 12.3455 15.7461C12.2941 15.7636 12.2395 15.7692 12.1858 15.7623C12.132 15.7554 12.0804 15.7363 12.0348 15.7063L8.02947 13.4773C7.87366 13.4617 7.71703 13.4974 7.58244 13.5792C7.41665 13.6482 7.27459 13.766 7.17423 13.9176C7.07905 14.0982 7.01188 14.2928 6.97511 14.4945C6.94814 14.619 6.94814 14.7481 6.97511 14.8726L11.6426 17.4206L14.948 15.8286C15.0029 15.8023 15.0627 15.7887 15.1233 15.7887C15.1838 15.7887 15.2436 15.8023 15.2985 15.8286L19.6563 17.4879C19.772 17.425 19.8667 17.3281 19.9281 17.2096L20.1621 16.383ZM7.60434 8.81349H2.5446C2.41202 8.7819 2.29074 8.71293 2.19448 8.6144C2.09823 8.51586 2.03086 8.39171 2 8.25599C2.03275 7.5707 2.20742 6.90036 2.51244 6.28941C2.81746 5.67846 3.24585 5.14086 3.76921 4.71225C4.98229 3.62665 6.53381 3.01954 8.14496 3C9.73251 3.01982 11.2592 3.62816 12.4421 4.71225C12.9565 5.14902 13.3787 5.68849 13.6829 6.29774C13.9871 6.907 14.1669 7.57329 14.2113 8.25599C14.2145 8.29903 14.2093 8.3423 14.196 8.38326C14.1826 8.42421 14.1614 8.46203 14.1336 8.49448C14.1075 8.58901 14.0511 8.67179 13.9734 8.72948C13.8958 8.78716 13.8014 8.8164 13.7055 8.81247H8.61091V11.44C8.59038 11.587 8.52963 11.7252 8.43568 11.8385C8.39564 11.8885 8.34517 11.9287 8.28798 11.9562C8.2308 11.9838 8.16832 11.9978 8.10514 11.9975C8.03402 12.0001 7.96333 11.9852 7.89903 11.954C7.83474 11.9228 7.77873 11.8761 7.73576 11.8181C7.6493 11.7118 7.60114 11.5783 7.59936 11.44V8.81349H7.60434ZM13.127 7.77799C12.8886 6.7605 12.3023 5.86393 11.4743 5.25038C10.5111 4.47714 9.32611 4.04986 8.10215 4.03448C6.8631 4.04857 5.6621 4.4746 4.68021 5.24835C3.84266 5.85634 3.24849 6.75422 3.00757 7.77595H13.1231L13.127 7.77799ZM17.0747 7.95736C16.9155 7.79658 16.7903 7.60409 16.7068 7.3918C16.6232 7.17951 16.583 6.95193 16.5888 6.72312C16.5843 6.49159 16.625 6.26147 16.7084 6.04622C16.7918 5.83097 16.9163 5.63491 17.0747 5.46951C17.232 5.30019 17.4223 5.1666 17.6332 5.07741C17.8442 4.98822 18.0711 4.94541 18.2993 4.95176C18.5257 4.94494 18.7512 4.98554 18.9617 5.07106C19.1723 5.15659 19.3636 5.28524 19.5239 5.44913C19.8482 5.7822 20.0302 6.23346 20.0297 6.70375C20.0428 6.93463 20.008 7.16573 19.9275 7.38182C19.847 7.59791 19.7227 7.79407 19.5627 7.95736C19.2241 8.29569 18.7714 8.48797 18.2983 8.49448C17.8366 8.4836 17.3966 8.29128 17.0697 7.95736H17.0747ZM17.7557 6.06676C17.6445 6.18088 17.5689 6.32617 17.5383 6.48427C17.5078 6.64237 17.5237 6.80619 17.584 6.95504C17.6444 7.10389 17.7465 7.23109 17.8774 7.32058C18.0084 7.41007 18.1623 7.45783 18.3197 7.45783C18.4771 7.45783 18.631 7.41007 18.762 7.32058C18.8929 7.23109 18.995 7.10389 19.0553 6.95504C19.1157 6.80619 19.1316 6.64237 19.1011 6.48427C19.0705 6.32617 18.9949 6.18088 18.8837 6.06676C18.8073 5.98859 18.7162 5.92714 18.6159 5.88614C18.5156 5.84514 18.4082 5.82545 18.3003 5.82827C18.1976 5.82713 18.0957 5.84773 18.0012 5.88877C17.9066 5.9298 17.8213 5.9904 17.7507 6.06676H17.7557ZM17.9697 4.31476C17.8807 4.21362 17.8201 4.08962 17.7945 3.95601V3.51775C17.812 3.3758 17.8734 3.24331 17.9697 3.13963C18.0153 3.09355 18.0706 3.05882 18.1314 3.03814C18.1921 3.01747 18.2568 3.01139 18.3202 3.02038C18.4518 3.02888 18.5761 3.08527 18.6707 3.17938C18.7147 3.22332 18.7495 3.27599 18.7729 3.33417C18.7964 3.39235 18.808 3.45482 18.8071 3.51775V3.95601C18.8102 4.02688 18.7979 4.09759 18.771 4.16299C18.7442 4.22839 18.7034 4.28685 18.6517 4.33413C18.5562 4.42408 18.4311 4.47393 18.3013 4.47376C18.2371 4.47521 18.1734 4.46164 18.1151 4.43409C18.0567 4.40654 18.0053 4.36572 17.9648 4.31476H17.9697ZM18.592 9.01223C18.6368 9.05142 18.6723 9.10048 18.6959 9.15572C18.7196 9.21097 18.7307 9.27098 18.7284 9.33124V9.84389C18.7332 9.91032 18.7235 9.97702 18.6999 10.0391C18.6763 10.1012 18.6394 10.1571 18.592 10.2027C18.4999 10.2826 18.3822 10.325 18.2615 10.3219C18.2027 10.3243 18.1442 10.3129 18.0904 10.2888C18.0366 10.2646 17.9889 10.2281 17.9508 10.1823C17.8688 10.0861 17.8131 9.96931 17.7895 9.84389V9.37099C17.8116 9.24627 17.8652 9.12964 17.9448 9.03262C17.9831 8.98672 18.031 8.9503 18.085 8.92611C18.139 8.90192 18.1976 8.8906 18.2565 8.89299C18.3772 8.88984 18.4949 8.93228 18.587 9.01223H18.592ZM21.8009 6.36233C21.8787 6.45332 21.9456 6.55358 22 6.66095C21.9849 6.7977 21.9228 6.9245 21.8248 7.01869C21.7327 7.09872 21.615 7.14118 21.4942 7.13793H20.9785C20.9109 7.14159 20.8433 7.1311 20.7797 7.10709C20.7162 7.08308 20.6582 7.04607 20.6091 6.9983C20.5649 6.95451 20.53 6.90187 20.5065 6.84365C20.483 6.78543 20.4715 6.7229 20.4727 6.65993C20.4933 6.5341 20.5541 6.41883 20.6457 6.33229C20.7372 6.24575 20.8543 6.19285 20.9785 6.18193H21.4843C21.6057 6.20459 21.7157 6.26937 21.7959 6.36538L21.8009 6.36233ZM14.7619 6.7007C14.7615 6.63601 14.7752 6.57206 14.8021 6.51352C14.829 6.45498 14.8683 6.40332 14.9172 6.36233C15.0161 6.27187 15.1367 6.20996 15.2666 6.18295H15.7684C15.8893 6.20452 15.9993 6.26783 16.08 6.36233C16.1581 6.45665 16.1996 6.57709 16.1965 6.7007C16.198 6.76266 16.1846 6.82405 16.1575 6.87948C16.1305 6.93492 16.0905 6.98272 16.0412 7.01869C15.9406 7.09718 15.8173 7.13914 15.6908 7.13793H15.2626C15.2 7.15216 15.135 7.15138 15.0727 7.13564C15.0104 7.1199 14.9526 7.08963 14.9036 7.0472C14.8546 7.00477 14.8159 6.95133 14.7904 6.89104C14.765 6.83075 14.7535 6.76526 14.7569 6.69968L14.7619 6.7007ZM19.7399 8.65144C19.7398 8.51856 19.7885 8.39048 19.8763 8.29268C19.9596 8.19117 20.0781 8.12682 20.2069 8.1133C20.2717 8.10743 20.337 8.11697 20.3976 8.14119C20.4582 8.16542 20.5126 8.20366 20.5564 8.25293L20.9068 8.57092C21.0107 8.64714 21.082 8.76136 21.1059 8.88993C21.1172 8.95965 21.1105 9.03116 21.0866 9.09745C21.0627 9.16374 21.0223 9.22253 20.9695 9.26805C20.923 9.32191 20.8662 9.36557 20.8028 9.3964C20.7393 9.42723 20.6704 9.44458 20.6002 9.44743C20.5418 9.45255 20.4831 9.44514 20.4277 9.42565C20.3723 9.40617 20.3215 9.37505 20.2786 9.3343L19.9281 9.01631C19.8702 8.97596 19.8224 8.92215 19.7886 8.85926C19.7549 8.79638 19.7361 8.72621 19.734 8.65449L19.7399 8.65144ZM16.2782 8.0338C16.3432 8.02777 16.4086 8.03724 16.4694 8.06146C16.5302 8.08569 16.5847 8.12402 16.6286 8.17343C16.7263 8.26788 16.7884 8.39455 16.8039 8.53117C16.8176 8.65947 16.7819 8.78819 16.7043 8.88993L16.3937 9.24868C16.3455 9.30767 16.2862 9.35612 16.2193 9.39114C16.1524 9.42616 16.0793 9.44704 16.0044 9.45252C15.9429 9.45379 15.8818 9.44204 15.8249 9.41801C15.768 9.39399 15.7166 9.3582 15.6738 9.31289C15.584 9.22289 15.5289 9.10276 15.5185 8.97452C15.5047 8.84621 15.5404 8.71746 15.6181 8.61577L15.9297 8.25701C15.9695 8.19847 16.0204 8.14879 16.0794 8.11095C16.1385 8.07311 16.2044 8.04791 16.2732 8.03686L16.2782 8.0338ZM15.6171 4.90895C15.5352 4.8214 15.481 4.71056 15.4618 4.59096C15.4487 4.52768 15.4518 4.46203 15.4706 4.40029C15.4894 4.33855 15.5234 4.28278 15.5693 4.23832C15.6617 4.13798 15.7859 4.07442 15.9198 4.05894C15.9759 4.05006 16.0332 4.05464 16.0873 4.07232C16.1414 4.09001 16.1907 4.12032 16.2314 4.16086L16.6207 4.47885C16.7185 4.57362 16.7805 4.70065 16.7959 4.83761C16.8008 4.90695 16.7912 4.97657 16.7677 5.04179C16.7442 5.10701 16.7073 5.16632 16.6595 5.21573C16.6189 5.27027 16.5654 5.31344 16.5042 5.34123C16.4429 5.36902 16.3758 5.38055 16.309 5.37473C16.1926 5.36737 16.0825 5.31788 15.9984 5.2351L15.6171 4.90895ZM19.8983 5.12808C19.8607 5.07383 19.8345 5.01229 19.8211 4.94726C19.8078 4.88222 19.8076 4.81507 19.8206 4.74996C19.84 4.6304 19.8941 4.51959 19.9759 4.43197L20.3652 4.11398C20.409 4.06444 20.4635 4.02602 20.5243 4.00179C20.5851 3.97755 20.6507 3.96816 20.7157 3.97435C20.8444 3.98787 20.963 4.05222 21.0462 4.15373C21.0893 4.2015 21.1219 4.2581 21.142 4.31978C21.1621 4.38145 21.1691 4.44679 21.1627 4.51147C21.1476 4.64851 21.0855 4.77562 20.9875 4.87022L20.5982 5.18923C20.5102 5.26272 20.401 5.30461 20.2875 5.30848C20.2119 5.31735 20.1354 5.30562 20.0656 5.27448C19.9959 5.24334 19.9354 5.19389 19.8903 5.13114L19.8983 5.12808Z" fill="#77DADA"/>
</svg>
