<svg width="24" height="24" viewBox="0 0 24 24" fill="none" xmlns="http://www.w3.org/2000/svg">
<path fill-rule="evenodd" clip-rule="evenodd" d="M20.9954 20.3192C20.9971 20.5404 20.9558 20.7597 20.874 20.9644C20.7922 21.169 20.6715 21.355 20.5189 21.5114C20.3663 21.6678 20.1848 21.7915 19.9851 21.8753C19.7854 21.9592 19.5714 22.0014 19.3556 21.9997H4.71491C4.4989 22.0039 4.28433 21.9628 4.08441 21.8789C3.88449 21.7949 3.70345 21.6699 3.55244 21.5116C3.2378 21.1926 3.0423 20.7707 3 20.3192V15.1177C3.0114 14.6835 3.17374 14.2678 3.45777 13.9454C3.7387 13.6318 4.11514 13.4251 4.52556 13.3592H4.72077V12.388C4.7125 11.369 5.04181 10.3774 5.65485 9.57516C6.24442 8.82472 7.07435 8.31262 7.99736 8.12975C7.53944 7.92114 7.14443 7.59059 6.85343 7.17248C6.54459 6.73197 6.35989 6.2129 6.31954 5.67205C6.25488 5.64424 6.19726 5.60167 6.15108 5.54759C6.1049 5.4935 6.07138 5.42933 6.05308 5.35996L5.74855 4.42269C5.72381 4.34747 5.72145 4.26642 5.74179 4.18982C5.76213 4.11323 5.80423 4.04457 5.86275 3.99257C6.15033 3.64327 6.46963 3.32274 6.81634 3.0353C7.38133 2.52435 8.06328 2.1682 8.7987 2H9.06516C9.79849 2.18047 10.4746 2.55032 11.029 3.07431C11.3627 3.36276 11.6749 3.67639 11.963 4.01257C12.0189 4.12758 12.0451 4.25535 12.0392 4.38368L11.963 5.20391C11.9662 5.32526 11.9256 5.44353 11.8488 5.53601C11.8115 5.58098 11.7647 5.61668 11.712 5.64042C11.6592 5.66416 11.6019 5.67531 11.5443 5.67305C11.4624 6.22344 11.2532 6.74577 10.9343 7.19648C10.639 7.60574 10.2447 7.9291 9.79036 8.13475C10.6777 8.34189 11.4666 8.86023 12.0206 9.60017C12.6192 10.3731 12.9481 11.3292 12.9547 12.3159V13.3712H19.3595C19.7986 13.3891 20.2146 13.5776 20.523 13.8984C20.6799 14.0594 20.8031 14.2516 20.885 14.4632C20.9669 14.6748 21.0058 14.9012 20.9993 15.1287V20.3302L20.9954 20.3192ZM11.1178 4.73378L11.1939 4.42169C10.8829 4.11235 10.5516 3.82526 10.2023 3.56245C9.84031 3.27276 9.42549 3.0602 8.98219 2.93727H8.90899C8.45688 3.05146 8.0343 3.26475 7.67038 3.56245C7.3429 3.81596 7.03095 4.08989 6.73631 4.38268L6.85051 4.73378H11.1178ZM7.78166 6.82438C8.08049 7.1163 8.47478 7.28357 8.88752 7.29351C9.0835 7.3046 9.27961 7.27388 9.46341 7.20328C9.64721 7.13269 9.81471 7.02376 9.95531 6.88339C10.2731 6.54901 10.4914 6.12887 10.5849 5.67205H7.23117C7.26977 6.11178 7.46712 6.52092 7.78459 6.81938L7.78166 6.82438ZM8.90606 10.6735L8.67767 11.6838L8.90606 11.9969L9.17252 11.6848L8.90606 10.6735ZM5.74172 13.3742H12.1085V12.388C12.1042 11.6186 11.8566 10.8713 11.4028 10.2584C10.9665 9.67826 10.3576 9.25968 9.66836 9.06602L9.70642 9.37911C9.7078 9.50625 9.6676 9.63021 9.59222 9.7312L10.0881 11.6848C10.1039 11.758 10.1054 11.8338 10.0923 11.9077C10.0792 11.9815 10.0519 12.052 10.0119 12.1149L9.2877 13.0532C9.23823 13.1182 9.17437 13.1703 9.10139 13.2051C9.02842 13.2399 8.94842 13.2564 8.868 13.2532C8.79254 13.2594 8.71688 13.244 8.64948 13.2087C8.58208 13.1734 8.5256 13.1195 8.48636 13.0532L7.76213 12.1159C7.72214 12.0682 7.69427 12.011 7.68099 11.9496C7.66771 11.8882 7.66942 11.8244 7.686 11.7638L8.14377 9.88825C8.0663 9.72852 8.01486 9.55687 7.99151 9.3801C7.99813 9.27187 8.02393 9.16578 8.06764 9.06702C7.37471 9.23712 6.76176 9.65048 6.33515 10.2354C5.88275 10.8563 5.63553 11.609 5.62947 12.384L5.74172 13.3742ZM19.9442 20.7203C20.0114 20.6258 20.058 20.5176 20.0809 20.403C20.1038 20.2884 20.1025 20.1701 20.0769 20.0562V15.1227C20.085 14.9106 20.0185 14.7026 19.8895 14.5366C19.824 14.4582 19.7418 14.3964 19.6492 14.3558C19.5566 14.3152 19.4562 14.297 19.3556 14.3025H4.71491C4.52877 14.306 4.35114 14.3831 4.21908 14.5176C4.14607 14.5833 4.08783 14.6644 4.0484 14.7554C4.00897 14.8465 3.98928 14.9452 3.99069 15.0447V20.2022C3.96442 20.4105 4.0191 20.621 4.14295 20.7884C4.19656 20.8729 4.27009 20.9422 4.35675 20.99C4.44341 21.0377 4.54041 21.0623 4.63878 21.0614H19.4318C19.5374 21.045 19.6383 21.005 19.7274 20.9444C19.8164 20.8837 19.8914 20.8038 19.9471 20.7103L19.9442 20.7203ZM14.206 12.476C14.1689 12.419 14.146 12.3535 14.1393 12.2853C14.1327 12.2171 14.1425 12.1483 14.1679 12.0849L14.3202 11.6938C14.4111 11.5205 14.5422 11.3728 14.7018 11.2636C14.7392 11.0628 14.7965 10.8664 14.8726 10.6775C14.9672 10.4336 15.103 10.2088 15.2738 10.0133C15.5501 9.7548 15.8739 9.55551 16.2264 9.42712C16.1788 9.35866 16.1522 9.27713 16.1503 9.19305L16.1884 8.993C16.2116 8.81669 16.277 8.64901 16.3787 8.50486C16.4573 8.42105 16.5522 8.35512 16.6573 8.31135C16.7624 8.26758 16.8753 8.24694 16.9887 8.25078H17.0268C17.2294 8.24244 17.4275 8.31404 17.5802 8.45084C17.7207 8.58345 17.8089 8.76423 17.8281 8.95899V9.15904C17.841 9.20735 17.8407 9.25833 17.8273 9.30648C17.8138 9.35462 17.7878 9.39807 17.752 9.43212C18.2175 9.56597 18.6264 9.85449 18.9145 10.2524C19.1349 10.5665 19.2846 10.927 19.3527 11.3077C19.4989 11.4047 19.6174 11.5396 19.6963 11.6988C19.7663 11.8312 19.8053 11.9784 19.8105 12.1289C19.8098 12.2631 19.784 12.3958 19.7343 12.52C19.62 12.594 19.488 12.6345 19.3527 12.637H14.5867C14.5141 12.6542 14.4381 12.6468 14.37 12.6159C14.3019 12.5851 14.2454 12.5325 14.2089 12.466L14.206 12.476ZM16.8413 9.07502C16.8359 9.08796 16.8336 9.10208 16.8348 9.11613C16.836 9.13017 16.8406 9.14369 16.8481 9.15548C16.8557 9.16726 16.866 9.17694 16.8781 9.18363C16.8902 9.19033 16.9037 9.19383 16.9175 9.19383C16.9312 9.19383 16.9448 9.19033 16.9569 9.18363C16.969 9.17694 16.9793 9.16726 16.9868 9.15548C16.9944 9.14369 16.9989 9.13017 17.0001 9.11613C17.0013 9.10208 16.9991 9.08796 16.9936 9.07502C17.0076 9.03795 17.0075 8.99686 16.9934 8.95984C16.9794 8.92281 16.9522 8.89253 16.9175 8.87496L16.8413 9.07502ZM15.5832 11.4587V11.6928H18.3288C18.3532 11.7188 18.3669 11.7188 18.3669 11.6928C18.358 11.419 18.2861 11.1513 18.157 10.9115C18.0317 10.6932 17.8491 10.5152 17.6299 10.3978C17.4108 10.2804 17.164 10.2283 16.9175 10.2474H16.8033C16.6143 10.2407 16.4261 10.2748 16.2508 10.3474C16.1051 10.4167 15.9751 10.5166 15.8692 10.6405C15.7567 10.7676 15.6781 10.9223 15.6408 11.0896C15.6096 11.211 15.5903 11.3353 15.5832 11.4607V11.4587Z" fill="#77DADA"/>
</svg>
