<svg width="24" height="24" viewBox="0 0 24 24" fill="none" xmlns="http://www.w3.org/2000/svg">
<path fill-rule="evenodd" clip-rule="evenodd" d="M2.82124 17.2631C2.77228 14.7589 3.69913 12.327 5.42125 10.4409C6.21963 9.57396 7.20244 8.8803 8.30382 8.40646C9.40519 7.93261 10.5997 7.68953 11.8072 7.6935C13.0238 7.68819 14.2276 7.9304 15.3389 8.40406C16.4502 8.87773 17.4436 9.57203 18.2533 10.4409C19.9755 12.2985 20.909 14.7055 20.8702 17.1885C20.8733 17.2551 20.8608 17.3215 20.8336 17.383C20.8064 17.4444 20.7653 17.4992 20.7132 17.5435C20.6176 17.6279 20.4923 17.6747 20.3622 17.6746H3.36825C3.24248 17.6731 3.12073 17.632 3.02185 17.5576C2.92297 17.4832 2.85246 17.3797 2.82124 17.2631ZM6.29725 10.9472C4.776 12.5509 3.89124 14.6148 3.79725 16.7789H19.9303C19.8865 14.6153 19.0185 12.5414 17.4892 10.9472C16.7781 10.2048 15.9134 9.61208 14.9502 9.2065C13.9869 8.80093 12.9461 8.59141 11.8937 8.59123C10.8413 8.59105 9.80038 8.80022 8.83697 9.20546C7.87355 9.6107 7.00869 10.2032 6.29725 10.9453V10.9472ZM21.8443 19.1895C21.8963 19.2338 21.9375 19.2886 21.9646 19.3501C21.9918 19.4115 22.0043 19.4779 22.0013 19.5445C22.0058 19.6087 21.9938 19.6729 21.9664 19.7316C21.9391 19.7903 21.8971 19.8417 21.8443 19.8814C21.7436 19.9551 21.62 19.9945 21.4932 19.9933H2.50925C2.44334 20.0048 2.37554 20.0014 2.31123 19.9835C2.24691 19.9656 2.18782 19.9336 2.13865 19.8901C2.08947 19.8465 2.05155 19.7927 2.02788 19.7327C2.0042 19.6727 1.99543 19.6083 2.00224 19.5445C1.99879 19.4779 2.01103 19.4115 2.03803 19.35C2.06503 19.2886 2.10612 19.2337 2.15825 19.1895C2.2538 19.1049 2.37908 19.0578 2.50925 19.0574H21.4942C21.6238 19.0575 21.7486 19.1039 21.8443 19.1876V19.1895ZM10.5162 7.11359C10.3384 6.94152 10.1984 6.73713 10.1045 6.51245C10.0105 6.28778 9.96455 6.04737 9.96924 5.80542C9.96348 5.56604 10.009 5.32808 10.1031 5.10621C10.1972 4.88434 10.3378 4.68328 10.5162 4.51543C10.8813 4.18017 11.3691 3.99516 11.8751 4.0001C12.381 4.00503 12.8648 4.19952 13.2227 4.54184C13.5805 4.88416 13.7839 5.34705 13.7893 5.83122C13.7946 6.3154 13.6015 6.78229 13.2512 7.13177C12.8876 7.48014 12.3976 7.68098 11.8832 7.69255C11.3655 7.68027 10.8739 7.47208 10.5162 7.11359ZM11.2002 5.09535C11.0061 5.27842 10.8939 5.5265 10.8872 5.78724C10.8769 5.91147 10.8961 6.03633 10.9436 6.15238C10.9911 6.26843 11.0655 6.37263 11.1612 6.45711C11.3566 6.63179 11.616 6.72567 11.8832 6.71836C12.013 6.72378 12.1425 6.70333 12.2635 6.65833C12.3845 6.61332 12.4945 6.54473 12.5863 6.45691C12.6782 6.36909 12.75 6.26396 12.7971 6.14818C12.8443 6.03241 12.8658 5.90851 12.8602 5.78437C12.8672 5.52828 12.7688 5.27982 12.5862 5.09248C12.4972 5.00065 12.3887 4.92811 12.268 4.87974C12.1472 4.83138 12.0171 4.80831 11.8862 4.81209C11.7577 4.8117 11.6305 4.83665 11.5124 4.88538C11.3944 4.93412 11.2881 5.00559 11.2002 5.09535Z" fill="#77DADA"/>
</svg>
