<svg width="24" height="24" viewBox="0 0 24 24" fill="none" xmlns="http://www.w3.org/2000/svg">
<path fill-rule="evenodd" clip-rule="evenodd" d="M6.43067 7.4901C6.16187 7.80877 5.78364 8.01121 5.3731 8.05617V20.5088C5.37262 20.607 5.34334 20.7028 5.289 20.784C5.23466 20.8652 5.15773 20.9281 5.06806 20.9646C4.97838 21.0011 4.88003 21.0096 4.78559 20.989C4.69114 20.9684 4.6049 20.9196 4.53788 20.8488C4.45401 20.7561 4.40754 20.6347 4.4077 20.5088V8.13152C4.01464 8.02218 3.66116 7.79939 3.39004 7.4901C3.12993 7.18775 2.99091 6.79718 3.00046 6.39563V3.49088C2.99756 3.42409 3.00926 3.35748 3.03473 3.29584C3.0602 3.2342 3.09879 3.17908 3.14774 3.13443C3.23935 3.04779 3.35994 2.99979 3.48506 3.00015C3.54495 3.00112 3.60394 3.01511 3.65808 3.04116C3.71221 3.06721 3.76024 3.10474 3.79894 3.15122C3.83763 3.19769 3.86611 3.25205 3.88244 3.31063C3.89877 3.36921 3.90259 3.43067 3.89364 3.49088V6.32221C3.8951 6.49133 3.94505 6.65634 4.03737 6.79704C4.12969 6.93773 4.26037 7.048 4.4134 7.11433V3.52855C4.4094 3.4119 4.4476 3.2978 4.52077 3.20784C4.61175 3.12367 4.73033 3.07703 4.85334 3.07703C4.97635 3.07703 5.09494 3.12367 5.18591 3.20784C5.26045 3.29724 5.30002 3.4114 5.29708 3.52855V7.15103C5.48173 7.10527 5.64663 6.99945 5.76669 6.84967C5.88675 6.69989 5.95541 6.51434 5.96222 6.32124V3.41553C5.98741 3.30241 6.04814 3.20069 6.13522 3.12575C6.2223 3.05082 6.33101 3.00673 6.44492 3.00015C6.56016 2.99717 6.67245 3.0374 6.76038 3.11318C6.80286 3.14917 6.83437 3.19673 6.8512 3.25029C6.86803 3.30384 6.86949 3.36117 6.8554 3.41553V6.32221C6.86352 6.75199 6.71185 7.16906 6.43067 7.4901ZM20.5534 7.4331C20.2923 7.74317 19.9425 7.96267 19.5529 8.061V20.5088C19.5602 20.5718 19.554 20.6357 19.5347 20.6961C19.5154 20.7564 19.4835 20.8118 19.4412 20.8585C19.3988 20.9051 19.347 20.9418 19.2894 20.9662C19.2317 20.9906 19.1696 21.0019 19.1072 20.9995C19.0411 21.0026 18.9752 20.9906 18.9142 20.9646C18.8533 20.9385 18.7988 20.899 18.7547 20.8488C18.6708 20.7561 18.6244 20.6347 18.6245 20.5088V8.13152C18.2139 8.03742 17.8435 7.81274 17.5669 7.4901C17.2849 7.16945 17.1325 6.75228 17.1403 6.32221V4.88674C17.1317 4.63472 17.1751 4.38367 17.2677 4.14974C17.3603 3.91581 17.5001 3.70421 17.6781 3.52855C17.8573 3.35327 18.0701 3.21748 18.3032 3.12972C18.5364 3.04195 18.7849 3.00409 19.0331 3.01851C19.5424 3.0174 20.0331 3.21281 20.4061 3.56526C20.5871 3.73369 20.7329 3.93738 20.8349 4.16423C20.9369 4.39107 20.9931 4.63645 21 4.88578V6.24493C20.9912 6.6816 20.8341 7.10174 20.5553 7.43407L20.5534 7.4331ZM19.7932 6.94238C19.8943 6.85764 19.9754 6.75107 20.0308 6.63042C20.0862 6.50976 20.1145 6.37807 20.1135 6.24493V4.88674C20.1151 4.75383 20.0876 4.62222 20.0331 4.50142C19.9785 4.38063 19.8982 4.27368 19.798 4.18833C19.5887 4.00013 19.3172 3.89907 19.0378 3.90529C18.9046 3.89981 18.7716 3.9221 18.6471 3.97077C18.5225 4.01944 18.4091 4.09348 18.3138 4.18833C18.2229 4.27923 18.1513 4.3881 18.1034 4.50822C18.0556 4.62834 18.0324 4.75717 18.0354 4.88674V6.24493C18.0323 6.37451 18.0555 6.50335 18.1034 6.62348C18.1513 6.74361 18.2229 6.85248 18.3138 6.94334C18.4091 7.0382 18.5225 7.11223 18.6471 7.16091C18.7716 7.20958 18.9046 7.23186 19.0378 7.22638C19.3159 7.23163 19.5858 7.13063 19.7942 6.94334L19.7932 6.94238ZM16.0276 7.8678C16.5626 8.406 16.9822 9.05087 17.2602 9.76188C17.5382 10.4729 17.6685 11.2347 17.643 11.9994C17.6563 12.7657 17.5169 13.5269 17.2331 14.2369C16.9493 14.947 16.5269 15.5913 15.9915 16.1309C14.9094 17.237 13.4402 17.8622 11.9057 17.8697C10.3712 17.8609 8.90037 17.2453 7.80465 16.1531C7.25862 15.6157 6.82445 14.9722 6.52793 14.2607C6.23142 13.5493 6.07862 12.7846 6.07862 12.0119C6.07862 11.2393 6.23142 10.4745 6.52793 9.7631C6.82445 9.05168 7.25862 8.40813 7.80465 7.8707C8.34354 7.32007 8.98411 6.88307 9.68957 6.58479C10.395 6.28651 11.1515 6.13282 11.9155 6.13255C12.6796 6.13228 13.4362 6.28544 14.1418 6.58322C14.8475 6.881 15.4884 7.31755 16.0276 7.8678ZM15.3406 15.5465C16.2382 14.6106 16.7358 13.3521 16.7251 12.0451C16.7144 10.738 16.1963 9.48813 15.2835 8.56756C14.3707 7.64699 13.1372 7.13024 11.8514 7.12981C10.5657 7.12938 9.33185 7.64529 8.41847 8.56525C7.50907 9.49377 6.99017 10.7452 6.97133 12.0554C6.99141 13.3691 7.51787 14.6223 8.43748 15.5455C9.35312 16.4756 10.5945 16.9981 11.8889 16.9983C13.1832 16.9985 14.4247 16.4763 15.3406 15.5465ZM14.0968 9.82974C14.3798 10.119 14.6015 10.4641 14.7486 10.8436C14.8957 11.2232 14.9649 11.6293 14.952 12.037C14.9634 12.4468 14.8936 12.8546 14.7467 13.2364C14.5998 13.6181 14.3788 13.9658 14.0968 14.2588C13.815 14.5514 13.4765 14.7812 13.1028 14.9339C12.7291 15.0865 12.3282 15.1586 11.9256 15.1456C11.5226 15.1573 11.1214 15.0864 10.7459 14.937C10.3704 14.7877 10.0284 14.5629 9.7402 14.2762C9.4523 13.9898 9.22608 13.6457 9.07592 13.2657C8.92576 12.8858 8.85493 12.4782 8.86791 12.0689C8.85647 11.6592 8.9263 11.2513 9.07322 10.8696C9.22014 10.4879 9.44116 10.1401 9.72309 9.84712C10.0087 9.55319 10.3491 9.32006 10.7243 9.16133C11.0995 9.00261 11.5021 8.92147 11.9085 8.92267C12.7273 8.91895 13.5141 9.2451 14.0968 9.82974ZM13.503 13.6783C13.7115 13.4659 13.8751 13.2123 13.9836 12.9332C14.0921 12.6541 14.1432 12.3554 14.1339 12.0554C14.14 11.7542 14.0869 11.4547 13.9778 11.1746C13.8686 10.8945 13.7056 10.6394 13.4982 10.4241C13.2908 10.2089 13.0433 10.0379 12.7701 9.92119C12.4968 9.80446 12.2035 9.74433 11.9071 9.74433C11.6108 9.74433 11.3174 9.80446 11.0442 9.92119C10.771 10.0379 10.5234 10.2089 10.316 10.4241C10.1086 10.6394 9.94559 10.8945 9.83644 11.1746C9.72728 11.4547 9.67421 11.7542 9.68033 12.0554C9.67086 12.3554 9.72196 12.6541 9.83048 12.9332C9.93899 13.2124 10.1026 13.4659 10.3113 13.6783C10.5197 13.8934 10.768 14.0642 11.042 14.1809C11.3159 14.2975 11.6099 14.3576 11.9069 14.3577C12.2039 14.3578 12.4979 14.2979 12.7719 14.1814C13.0459 14.0649 13.2944 13.8932 13.503 13.6783Z" fill="#77DADA"/>
</svg>
