<svg width="24" height="24" viewBox="0 0 24 24" fill="none" xmlns="http://www.w3.org/2000/svg">
<path fill-rule="evenodd" clip-rule="evenodd" d="M20.785 10.7984L16.8337 14.1659L17.8404 19.1383C17.8875 19.278 17.8803 19.4268 17.8198 19.5629C17.7594 19.6989 17.6489 19.8149 17.5045 19.894C17.34 19.9552 17.1624 19.9872 16.9826 19.9883C16.826 19.9921 16.6712 19.9595 16.5351 19.894L11.955 17.4706L7.37496 19.894C7.2439 19.9658 7.09027 20.0027 6.93406 19.9998C6.77784 19.997 6.62626 19.9545 6.49903 19.8779C6.34966 19.8053 6.23135 19.6946 6.16107 19.5618C6.09078 19.4289 6.07214 19.2807 6.10781 19.1383L7.10493 14.1651L3.2281 10.7984C3.12809 10.6923 3.05823 10.5683 3.02391 10.4358C2.9865 10.3004 2.99309 10.159 3.04299 10.0266C3.08756 9.89647 3.17852 9.78113 3.30348 9.69624C3.42139 9.6134 3.56278 9.55788 3.71378 9.53511L9.08104 8.87449L11.2795 4.44106C11.345 4.31131 11.4539 4.20052 11.5929 4.12224C11.7318 4.04397 11.8948 4.00162 12.0619 4.00038C12.2112 3.99599 12.3586 4.02969 12.4849 4.09709C12.6112 4.16449 12.7105 4.26246 12.7699 4.37823L15.0437 8.87852L20.2993 9.53914C20.4468 9.57085 20.5823 9.6337 20.6932 9.72178C20.804 9.80986 20.8865 9.92028 20.9329 10.0427C20.9956 10.1676 21.0149 10.305 20.9885 10.4388C20.9622 10.5726 20.8922 10.6973 20.785 10.7984ZM20.1171 10.2344L14.8615 9.57378C14.7185 9.55562 14.5841 9.50504 14.4725 9.42743C14.3609 9.34982 14.2764 9.24809 14.2279 9.1331L11.9875 4.78749L9.78904 9.12988C9.74047 9.24482 9.6559 9.34651 9.54434 9.4241C9.43277 9.5017 9.29838 9.55232 9.15546 9.57056L3.82542 10.2956L7.77667 13.6632C7.87261 13.7508 7.9428 13.8563 7.98158 13.971C8.02037 14.0858 8.02666 14.2066 7.99995 14.3238L6.99329 19.2318L11.5409 16.8398C11.6914 16.7766 11.8575 16.7443 12.0256 16.7456C12.1822 16.7419 12.3369 16.7745 12.4731 16.8398L17.0208 19.2318L16.0141 14.323C15.9837 14.2059 15.9882 14.0843 16.0272 13.969C16.0662 13.8537 16.1384 13.7483 16.2374 13.6624L20.1171 10.2344Z" fill="#77DADA"/>
</svg>
