<svg width="24" height="24" viewBox="0 0 24 24" fill="none" xmlns="http://www.w3.org/2000/svg">
<path fill-rule="evenodd" clip-rule="evenodd" d="M11.1321 10.7545L11.3638 11.7705V11.8045L11.2869 20.8275C11.3042 20.9775 11.2909 21.1294 11.2478 21.2739C11.2048 21.4184 11.1328 21.5524 11.0365 21.6675C10.9372 21.7783 10.8151 21.8655 10.6788 21.9229C10.5424 21.9803 10.3953 22.0065 10.2479 21.9995H6.05031C5.90609 22.0028 5.76285 21.9749 5.63009 21.9177C5.49734 21.8604 5.37813 21.7751 5.28041 21.6675C5.17375 21.5427 5.0945 21.3963 5.04793 21.238C5.00136 21.0797 4.98853 20.9132 5.0103 20.7495L5.08817 11.8825L5.28533 10.7495C5.28533 10.7755 5.29814 10.7365 5.32377 10.6325L6.8636 7.74151V4.30451L6.74826 4.18751C6.67699 4.09923 6.63644 3.98956 6.63292 3.87551V3.13251C6.62676 2.83851 6.72987 2.55293 6.92176 2.33251C7.01485 2.22411 7.13055 2.13808 7.26048 2.08066C7.3904 2.02323 7.5313 1.99586 7.67295 2.00051L8.78985 2.07851C9.06218 2.07476 9.32499 2.18003 9.52132 2.37151C9.62297 2.46909 9.70298 2.58752 9.75601 2.71891C9.80904 2.85029 9.83388 2.99163 9.82889 3.13351V3.95451C9.82595 3.99933 9.81424 4.04311 9.79444 4.08329C9.77464 4.12347 9.74713 4.15924 9.71354 4.18851L9.52132 4.38851V7.62451C9.54629 7.59917 9.54629 7.63818 9.52132 7.74151L11.0611 10.6325C11.1124 10.6072 11.138 10.6462 11.138 10.7495L11.1321 10.7545ZM10.442 11.8875L10.2498 10.9505L8.82534 8.13851L8.74844 7.90451C8.71937 7.84212 8.70584 7.77344 8.70902 7.70451V4.18751C8.72722 4.07677 8.76675 3.97075 8.82534 3.87551L8.89533 3.75451V3.13251C8.89835 3.11648 8.89745 3.09994 8.89273 3.08435C8.888 3.06875 8.87958 3.05456 8.86821 3.04302C8.85683 3.03148 8.84285 3.02294 8.82747 3.01814C8.8121 3.01335 8.79579 3.01244 8.77998 3.01551H7.66308C7.64728 3.01244 7.63098 3.01335 7.61561 3.01814C7.60023 3.02294 7.58623 3.03148 7.57486 3.04302C7.56348 3.05456 7.55506 3.06875 7.55034 3.08435C7.54561 3.09994 7.54471 3.11648 7.54774 3.13251V3.75451L7.66308 3.95451C7.71116 4.02297 7.73795 4.10447 7.73997 4.18851V8.01651L6.19916 10.9855L6.00694 12.0795L5.93793 20.9455C5.98566 21.0071 6.0541 21.0488 6.13017 21.0625H10.2508C10.2801 21.0588 10.3073 21.0452 10.3282 21.024C10.3491 21.0029 10.3624 20.9752 10.3661 20.9455L10.442 11.8875ZM18.6833 11.8285C18.8858 12.0436 18.9964 12.3311 18.9909 12.6285V13.3285C19.0134 13.7657 18.9942 14.2041 18.9337 14.6375C18.8734 15.1271 18.7502 15.6065 18.567 16.0635C18.2902 16.6573 17.9339 17.2095 17.5083 17.7045C17.1749 18.1878 16.672 18.5234 16.1025 18.6425H16.0641L16.1025 21.0645H17.3348C17.4079 21.063 17.4804 21.078 17.547 21.1085C17.6137 21.1389 17.6728 21.184 17.7202 21.2405C17.7677 21.2882 17.803 21.3469 17.8231 21.4115C17.8432 21.4762 17.8475 21.5448 17.8355 21.6115C17.8002 21.7276 17.7283 21.8286 17.6309 21.8993C17.5335 21.9699 17.416 22.0062 17.2963 22.0025H13.8243C13.7642 22.0042 13.7047 21.9908 13.6509 21.9636C13.5971 21.9364 13.5507 21.8962 13.5158 21.8465C13.4399 21.7454 13.3993 21.6216 13.4004 21.4945C13.3989 21.4337 13.4121 21.3734 13.4389 21.319C13.4657 21.2646 13.5053 21.2177 13.5542 21.1825C13.6538 21.1054 13.7759 21.0642 13.9012 21.0655H15.1719V18.6405C14.6064 18.4635 14.1302 18.0715 13.8431 17.5465C13.4136 16.9313 13.0656 16.2616 12.808 15.5545C12.5584 14.841 12.46 14.0822 12.5191 13.3275L12.596 12.5465C12.5928 12.4124 12.6168 12.279 12.6665 12.1546C12.7161 12.0302 12.7905 11.9175 12.8849 11.8235C13.0868 11.6239 13.3535 11.5059 13.6351 11.4915H17.9095C18.0539 11.4883 18.1974 11.5163 18.3303 11.5738C18.4632 11.6312 18.5826 11.7167 18.6804 11.8245L18.6833 11.8285ZM18.0288 12.5125C18.0288 12.4595 18.008 12.4086 17.971 12.3711C17.934 12.3336 17.8839 12.3125 17.8316 12.3125H13.5927C13.5412 12.3138 13.4923 12.3355 13.4564 12.3728C13.4205 12.4102 13.4004 12.4603 13.4004 12.5125V13.3715C13.3878 14.0487 13.4923 14.7229 13.709 15.3635C13.9056 15.9555 14.1981 16.5101 14.5745 17.0045C14.7687 17.2663 14.9953 17.5015 15.2488 17.7045L16.0956 17.5485C16.3926 17.3629 16.6484 17.1167 16.8468 16.8255C17.1999 16.3667 17.4913 15.8623 17.7133 15.3255C17.8566 15.0245 17.948 14.7008 17.9834 14.3685C18.0081 14.0685 18.0219 13.7635 18.0219 13.4505V12.5075L18.0288 12.5125Z" fill="#77DADA"/>
</svg>
